#!OML:ASF F:\VICON\USERDATA\INSTALL\rory3\rory3.ASF
:FULLY-SPECIFIED
:DEGREES
1
root 0.09631819411309656 17.55030082620586 -14.398189696304119 7.9348532732731005 1.0999244377427058 -1.2977879816548625
lfemur -16.19430380994895 6.078164611544018 -16.890407924724016
ltibia 20.035705067816878
lfoot -9.131520658838168 4.921012086612543
ltoes -11.059499009857438
rfemur -15.666604073366091 -3.9335288917159428 19.931605095986246
rtibia 21.357505313133913
rfoot -13.184800253004893 -0.9210729660331709
rtoes 8.764088762083
lowerback -0.447395999088693 -0.7962244164300746 1.0254868134932311
upperback 5.580987847127813 -1.1992295814445717 1.8793647639309548
thorax 6.05542142530922 -0.5968632928237534 1.3103374544484385
lowerneck -10.579206139099218 -0.36469940469728124 -2.998448984946614
upperneck 36.05908628469653 -0.38813729772765515 1.6792490883401632
head 14.066785567022055 -0.35282490117909426 1.1568510900959605
lclavicle 1.1182325558736711e-15 -1.3239623117149027e-15
lhumerus -16.908107810508362 2.63751491112252 86.90979890177915
lradius 21.26910132264085
lwrist 1.8028041742895242
lhand -23.135603754859417 -3.3766269148950974
lfingers 7.125019999999998
lthumb 3.312126244378126 26.577393049406428
rclavicle 1.1182325558736711e-15 -1.3239623117149027e-15
rhumerus -17.092912433204354 -12.894699723984536 -81.46569458749595
rradius 28.40029941321667
rwrist 28.899514490111052
rhand -19.227887845831294 -27.45919228691861
rfingers 7.125019999999998
rthumb 7.085162157354957 -57.320591963277984
2
root 0.09759301257891911 17.542600880128134 -14.360089727345104 7.606813800310187 0.991512354910065 -1.355897049863611
lfemur -15.460104308831173 6.407962868555359 -16.754408728172688
ltibia 19.64670529401531
lfoot -9.46141032788079 4.584332711339561
ltoes -11.193998831998773
rfemur -15.231204373381761 -3.9108789823590118 19.964004883358875
rtibia 21.45810525692963
rfoot -13.348600095780242 -0.8984810072792624
rtoes 8.607608951652908
lowerback -0.7720345256283297 -0.7645628201537956 1.0087669659822507
upperback 5.426478468507883 -1.1581499870406446 1.833565641112354
thorax 6.076661379089867 -0.5757546821270171 1.270598009045815
lowerneck -10.667105877102136 -0.32579809318812286 -2.924600827761363
upperneck 36.158086174382326 -0.3039161269787281 1.5600401895023899
head 14.12948535569489 -0.3231547851743547 1.1090129335541288
lclavicle 1.1182325558736711e-15 -1.3239623154195337e-15
lhumerus -16.9801077365807 -0.21560234535556777 88.22219609782454
lradius 22.206999887716027
lwrist 3.528512681095593
lhand -24.108098249549876 -4.76254144844232
lfingers 7.125019999999998
lthumb 2.3729917498519115 25.203998501033304
rclavicle 1.1182325558736711e-15 -1.3239623154195337e-15
rhumerus -17.1829122777967 -14.764697455593378 -80.97569596443974
rradius 26.91780148090715
rwrist 30.623110560008445
rhand -19.138788397547188 -27.47409215556052
rfingers 7.125019999999998
rthumb 7.171201605125792 -57.33259186213482
3
root 0.11852397388736452 17.535700928448097 -14.324989755941923 7.14091454883652 0.9232089327577279 -1.36099696808534
lfemur -14.566004916363989 6.78536087400134 -16.740908807926786
ltibia 19.200805553300363
lfoot -9.731680056736316 4.160443497889215
ltoes -11.20329881970074
rfemur -14.615004797979047 -3.677939914561946 19.84750564789865
rtibia 21.53260521530717
rfoot -13.497999952377539 -1.181533490510936
rtoes 8.20408944050292
lowerback -1.0844870699402813 -0.7570329161691948 0.922053756827504
upperback 5.362658725167492 -1.1454301126293025 1.741717400263258
thorax 6.187981136851718 -0.5708607723847363 1.220708705293
lowerneck -10.855305316148204 -0.1591830420073876 -2.830333180126244
upperneck 36.52238576844847 -0.070076329391545 1.5455603232565132
head 14.333784667112141 -0.21513800344027248 1.1259522807911404
lclavicle 1.1182325691938638e-15 -1.3239623428338068e-15
lhumerus -16.706808017197815 -2.222840415220514 89.04939433050416
lradius 22.083000077427805
lwrist 3.5202026882859276
lhand -23.120403840906416 -3.6406058736847755
lfingers 7.125019999999998
lthumb 3.3268061583202924 26.31319409813209
rclavicle 1.1182325691938638e-15 -1.3239623428338068e-15
rhumerus -17.381011935727198 -16.489895362850902 -80.84779632385016
rradius 25.78830305625717
rwrist 31.98060746467643
rhand -18.837590262606973 -27.40329277973186
rfingers 7.125019999999998
rthumb 7.461959738945522 -57.25169254400835
4
root 0.15615456712942638 17.52830098026951 -14.299489776717328 6.750875175484326 0.8685083955248457 -1.4435156448808297
lfemur -13.911505361090756 6.976799862243455 -16.697609063730667
ltibia 18.974105685123416
lfoot -9.966579821076282 3.864794046482966
ltoes -11.049099023610076
rfemur -14.07340517117266 -3.3881510742729817 19.765106188654677
rtibia 21.518705223072978
rfoot -13.571199882115973 -1.5857827524739083
rtoes 7.606660164267938
lowerback -1.3581066708871057 -0.7829135861592901 0.8347855527344461
upperback 5.283069045248006 -1.1800397709136234 1.7340075479285115
thorax 6.263260973038502 -0.5919463835056485 1.256058211960909
lowerneck -10.882105236267414 0.02731845721510273 -2.7085062202091277
upperneck 36.71588555283437 0.22423767275985082 1.4118415584499784
head 14.422284368827388 -0.09237296111776785 1.095783443356629
lclavicle 1.1182325616907158e-15 -1.3239623202355567e-15
lhumerus -16.41050832143072 -3.1885794865778836 89.58379318875366
lradius 21.604200809960062
lwrist 3.1687529923828057
lhand -23.15010367277511 -3.404286805796385
lfingers 7.125019999999998
lthumb 3.2981563262737628 26.549993158169045
rclavicle 1.1182325616907158e-15 -1.3239623202355567e-15
rhumerus -17.830611159379664 -17.266994420194877 -80.9916959194783
rradius 25.524403424326998
rwrist 32.43710642377841
rhand -18.59129178772061 -27.25599407832562
rfingers 7.125019999999998
rthumb 7.699678213191029 -57.09579385802668
5
root 0.2013966735582795 17.524401007580792 -14.28848978567934 6.633185364567947 0.6675570955749449 -1.4847249840803223
lfemur -13.67000552518783 7.205488653619814 -16.786308539716714
ltibia 18.898205729258287
lfoot -10.137899649201966 3.7256243047200495
ltoes -11.02219905918181
rfemur -13.942605261301404 -2.9980526354147545 19.62600710150861
rtibia 21.58330518698159
rfoot -13.618899836330774 -1.9737120442322125
rtoes 6.942050969419118
lowerback -1.6424862561413187 -0.7955194254195663 0.7040277452770021
upperback 5.163229527198606 -1.1934396386111046 1.7215977856101958
thorax 6.30255088754141 -0.6045631508163097 1.3121074297469468
lowerneck -10.845705344762226 0.13889468249481052 -2.6783169735547925
upperneck 36.53128575853134 0.4380465675735432 1.2514730398138425
head 14.322384705535255 -0.01702040618150266 1.0537750621626005
lclavicle 1.118232574336442e-15 -1.3239623361655101e-15
lhumerus -16.385408347202745 -3.3828392997800747 89.78019276914326
lradius 21.558900879266062
lwrist 3.025893115994357
lhand -23.111003894119687 -3.2804172943740104
lfingers 7.125019999999998
lthumb 3.335916104915192 26.673192669134217
rclavicle 1.118232574336442e-15 -1.3239623361655101e-15
rhumerus -18.394210186182406 -17.509794125667938 -81.44459464678881
rradius 25.91110288498406
rwrist 31.982407460572123
rhand -18.62499157904692 -27.27049395049392
rfingers 7.125019999999998
rthumb 7.667128422106174 -57.111493725697706
6
root 0.24829267420822485 17.52530100127819 -14.286989786901376 6.591925430857273 0.3484157955136894 -1.4638253192108877
lfemur -13.467805662580892 7.482417190048416 -16.97090744915329
ltibia 18.71110583805448
lfoot -10.240799545969027 3.724104307540489
ltoes -10.913399203055583
rfemur -13.921605275771586 -2.6536340137496683 19.42020845208616
rtibia 21.575905191115872
rfoot -13.581899871845499 -2.204621622661078
rtoes 6.360811673570533
lowerback -1.7981260291526624 -0.7861795445143662 0.5700139675147808
upperback 5.0539499666809355 -1.1722198481230057 1.666258845505798
thorax 6.277180942747856 -0.5989932535411755 1.3293071897098327
lowerneck -10.89620519424058 0.23174003928085782 -2.632738110934564
upperneck 36.491285803102706 0.5901080703589704 1.1761737353722321
head 14.31178474126201 0.043379294262036794 1.0368957126135594
lclavicle 1.1182325562108916e-15 -1.3239623313494869e-15
lhumerus -16.425208306337154 -3.3961992869332787 89.69849294369605
lradius 21.448601048017746
lwrist 2.9792931563156273
lhand -23.202203377837705 -3.1218179199363854
lfingers 7.125019999999998
lthumb 3.247816621379445 26.833192034024055
rclavicle 1.1182325562108916e-15 -1.3239623313494869e-15
rhumerus -18.8126094637095 -17.5545940713236 -82.11429276487198
rradius 26.14290256168514
rwrist 31.477408612058436
rhand -18.696791134454315 -27.20459453146696
rfingers 7.125019999999998
rthumb 7.597778867214175 -57.04819425922793
